<?xml version="1.0" standalone="no"?>
<!DOCTYPE svg PUBLIC "-//W3C//DTD SVG 20010904//EN"
 "http://www.w3.org/TR/2001/REC-SVG-20010904/DTD/svg10.dtd">
<svg version="1.0" xmlns="http://www.w3.org/2000/svg"
 width="1080.000000pt" height="1080.000000pt" viewBox="0 0 1080.000000 1080.000000"
 preserveAspectRatio="xMidYMid meet">
<metadata>
Created by potrace 1.11, written by Peter Selinger 2001-2013
</metadata>
<g transform="translate(0.000000,1080.000000) scale(0.100000,-0.100000)"
fill="#000000" stroke="none">
<path d="M5248 9595 c-2 -1 -28 -6 -58 -9 -295 -34 -632 -209 -850 -443 -347
-371 -482 -860 -380 -1383 32 -169 123 -399 211 -540 9 -14 72 -113 142 -221
194 -303 270 -473 302 -669 14 -85 16 -93 35 -131 39 -76 128 -149 202 -165
13 -3 260 -5 549 -6 553 0 568 1 634 45 84 57 126 122 144 223 17 98 19 106
40 182 41 143 127 310 271 526 129 195 192 307 262 466 123 279 156 722 77
1020 -23 86 -55 184 -69 208 -5 9 -23 47 -39 83 -111 242 -346 489 -599 632
-223 125 -460 186 -729 185 -78 0 -143 -1 -145 -3z"/>
<path d="M3660 7437 c-3 -3 -27 -7 -55 -10 -47 -6 -75 -10 -135 -22 -14 -3
-38 -8 -55 -11 -16 -2 -38 -7 -47 -10 -9 -3 -25 -6 -35 -8 -89 -18 -365 -103
-493 -153 -190 -75 -366 -182 -447 -272 -27 -30 -103 -185 -103 -211 0 -4 -16
-22 -36 -41 -91 -85 -114 -109 -177 -189 -37 -47 -81 -114 -98 -149 -37 -77
-277 -709 -360 -946 -33 -93 -64 -179 -68 -191 -5 -11 -45 -129 -90 -262 -202
-604 -354 -1172 -425 -1592 -4 -19 -11 -57 -16 -85 -5 -27 -12 -68 -15 -90 -3
-23 -7 -50 -9 -60 -2 -11 -7 -45 -11 -75 -3 -30 -8 -66 -10 -80 -19 -128 -25
-472 -12 -610 25 -247 86 -480 163 -617 111 -199 258 -342 454 -439 80 -39
237 -101 274 -108 48 -9 246 127 382 260 128 126 228 249 659 806 197 254 337
404 479 510 166 124 273 157 536 164 219 6 2933 6 3025 0 236 -16 338 -50 493
-165 147 -109 273 -251 617 -696 38 -49 75 -97 82 -105 6 -8 56 -71 109 -140
54 -69 101 -127 104 -130 3 -3 27 -32 55 -65 181 -218 430 -426 528 -442 27
-4 56 3 124 32 128 55 240 112 308 158 77 52 200 175 252 252 101 151 182 371
209 571 3 27 8 57 9 66 25 127 24 472 0 648 -2 14 -6 50 -10 80 -4 30 -8 66
-10 80 -9 60 -16 111 -19 137 -2 15 -7 46 -11 68 -14 72 -15 79 -25 135 -5 30
-12 71 -15 90 -3 19 -8 46 -10 60 -8 37 -15 72 -20 100 -11 58 -121 479 -134
513 -5 12 -9 27 -10 32 -5 36 -125 436 -192 645 -124 381 -499 1395 -555 1499
-61 112 -173 250 -257 316 -29 23 -46 51 -76 123 -54 133 -86 173 -188 239
-166 108 -301 170 -528 245 -120 39 -394 110 -470 122 -22 3 -63 9 -90 14
-113 19 -230 3 -241 -31 -23 -75 -142 -291 -255 -465 -54 -82 -57 -92 -31 -86
132 29 191 53 362 146 l65 36 75 -14 c41 -7 89 -15 105 -18 46 -8 208 -51 319
-86 252 -77 479 -192 492 -249 11 -44 69 -158 104 -203 19 -24 57 -62 86 -86
78 -62 160 -177 200 -280 19 -48 82 -215 140 -372 58 -157 109 -294 114 -305
4 -11 13 -36 20 -55 7 -19 16 -44 21 -55 4 -11 44 -121 88 -245 99 -279 189
-567 289 -920 51 -181 112 -403 117 -430 2 -8 10 -45 19 -83 9 -37 18 -82 21
-100 3 -17 10 -59 16 -92 6 -33 13 -71 15 -85 3 -14 7 -36 9 -50 3 -14 10 -54
15 -90 6 -36 13 -76 15 -90 2 -14 9 -65 15 -115 6 -49 13 -103 15 -120 36
-260 16 -596 -46 -785 -37 -112 -93 -219 -149 -284 -32 -37 -130 -106 -199
-141 l-53 -26 -27 22 c-77 67 -219 224 -347 384 -79 99 -147 185 -151 190 -5
6 -40 51 -78 100 -402 522 -567 695 -800 843 -104 65 -286 133 -394 147 -30 4
-62 8 -71 10 -75 14 -444 19 -1615 18 -1274 0 -1717 -5 -1810 -19 -158 -23
-338 -89 -462 -170 -135 -88 -316 -253 -450 -409 -96 -112 -110 -130 -248
-310 -182 -236 -238 -308 -250 -321 -5 -6 -21 -26 -35 -44 -132 -174 -330
-391 -385 -420 -25 -13 -31 -12 -98 23 -73 37 -164 114 -210 177 -48 67 -110
208 -123 280 -3 14 -11 61 -19 105 -21 116 -28 203 -29 345 0 119 9 289 18
337 3 12 7 46 10 75 4 29 8 63 10 74 3 12 7 39 10 60 8 47 17 102 23 129 2 11
6 35 9 53 3 26 61 307 79 382 25 112 108 421 147 550 28 91 54 179 58 195 33
123 253 767 365 1065 269 720 255 691 420 855 92 91 133 152 175 258 27 68 58
93 202 162 168 81 483 177 704 214 l104 18 98 -55 c53 -30 123 -66 155 -79 71
-29 175 -54 182 -44 2 5 -15 38 -40 74 -109 163 -265 448 -265 485 0 5 -10 12
-23 16 -34 8 -142 18 -147 13z"/>
<path d="M4862 5868 c-72 -19 -97 -130 -43 -190 l29 -33 552 0 552 0 29 35
c50 60 32 158 -34 184 -25 10 -148 13 -542 13 -280 0 -525 -4 -543 -9z"/>
<path d="M3080 5639 c-119 -36 -165 -202 -83 -299 43 -51 97 -73 166 -67 99 9
169 86 169 185 0 131 -123 219 -252 181z"/>
<path d="M7595 5639 c-17 -5 -45 -21 -62 -36 -105 -95 -81 -259 45 -315 153
-68 312 77 256 234 -35 99 -134 148 -239 117z"/>
<path d="M4930 5468 c-18 -13 -38 -36 -45 -53 -17 -43 1 -112 38 -139 28 -20
40 -21 455 -24 286 -2 439 0 464 8 93 27 109 159 26 210 -32 19 -51 20 -469
20 -436 0 -436 0 -469 -22z"/>
<path d="M2730 5307 c-150 -30 -203 -222 -90 -324 76 -67 179 -68 254 -2 45
39 66 93 61 159 -8 113 -112 190 -225 167z"/>
<path d="M3441 5294 c-75 -32 -118 -111 -108 -196 8 -62 30 -99 79 -131 141
-91 317 20 294 186 -17 120 -151 191 -265 141z"/>
<path d="M7205 5296 c-80 -34 -122 -116 -110 -208 13 -94 116 -169 211 -153
175 27 225 251 78 345 -54 34 -124 40 -179 16z"/>
<path d="M7955 5296 c-125 -56 -151 -230 -46 -319 97 -81 256 -41 300 76 23
60 6 153 -37 200 -47 52 -151 72 -217 43z"/>
<path d="M3098 4969 c-119 -32 -176 -155 -123 -265 58 -122 214 -146 307 -47
15 15 32 42 38 58 16 42 14 118 -4 153 -17 33 -88 98 -108 100 -7 0 -29 3 -48
5 -19 2 -47 0 -62 -4z"/>
<path d="M7596 4965 c-60 -21 -112 -78 -123 -135 -29 -143 88 -260 227 -229
165 37 199 264 51 347 -48 27 -107 33 -155 17z"/>
</g>
</svg>
